<svg width="12" height="10" viewBox="0 0 12 10" fill="none" xmlns="http://www.w3.org/2000/svg">
<path d="M11.4544 1.9021L11.4546 1.90224C11.5152 1.96285 11.5149 2.06156 11.4548 2.12162L11.4544 2.122L5.48402 8.09176L5.44195 8.13383L5.43957 8.13772L5.07727 8.49706L5.07609 8.49823C5.05602 8.51827 5.02285 8.53674 4.96537 8.53674H4.96332C4.90413 8.53674 4.87094 8.51798 4.85085 8.49795L4.85086 8.49794L4.84843 8.49556L4.47877 8.13204L4.47142 8.12164L4.44125 8.09147L0.545066 4.19548C0.545064 4.19548 0.545062 4.19548 0.545061 4.19548C0.515966 4.16638 0.5 4.12909 0.5 4.08494C0.5 4.04097 0.515915 4.00345 0.545226 3.97404C0.545266 3.974 0.545305 3.97396 0.545344 3.97392L0.937957 3.5815C0.937975 3.58149 0.937993 3.58147 0.938012 3.58145C0.967515 3.55202 1.00498 3.53616 1.04868 3.53616C1.09267 3.53616 1.13012 3.55214 1.15937 3.58136L4.61005 7.03215L4.9636 7.38571L5.31716 7.03215L10.8404 1.50903L10.8405 1.50889C10.8695 1.47984 10.9068 1.46387 10.9509 1.46387C10.995 1.46387 11.0322 1.47979 11.0612 1.50889L11.0614 1.50903L11.4544 1.9021ZM5.83756 8.44533L11.8079 2.47557L4.08771 8.44504C4.09288 8.45235 4.09834 8.45918 4.10468 8.46543L4.49785 8.85206C4.62137 8.97518 4.78615 9.03674 4.96332 9.03674H4.96537C5.14127 9.03674 5.30605 8.97518 5.42937 8.85206L5.82263 8.46201L5.82355 8.46111C5.82949 8.45527 5.8345 8.45034 5.83756 8.44533Z" fill="#525252" stroke="black"/>
</svg>
