<?xml version="1.0" standalone="no"?>
<!DOCTYPE svg PUBLIC "-//W3C//DTD SVG 20010904//EN"
 "http://www.w3.org/TR/2001/REC-SVG-20010904/DTD/svg10.dtd">
<svg version="1.0" xmlns="http://www.w3.org/2000/svg"
 width="300.000000pt" height="300.000000pt" viewBox="0 0 300.000000 300.000000"
 preserveAspectRatio="xMidYMid meet">
<metadata>
Created by potrace 1.11, written by Peter Selinger 2001-2013
</metadata>
<g transform="translate(0.000000,300.000000) scale(0.100000,-0.100000)"
fill="#000000" stroke="none">
<path d="M355 2782 c-64 -21 -139 -93 -154 -147 -17 -62 -13 -96 15 -154 30
-59 91 -106 186 -141 93 -34 123 -59 126 -106 4 -59 -21 -78 -111 -82 -54 -3
-88 1 -136 18 -35 11 -64 20 -66 18 -7 -10 -33 -133 -29 -140 12 -19 124 -42
209 -42 201 -2 314 83 315 237 0 112 -51 170 -211 238 -55 23 -106 51 -114 62
-21 30 -19 63 7 86 39 37 87 38 229 5 24 -5 26 -2 42 55 9 33 17 65 17 70 0 4
-26 16 -58 25 -75 21 -202 20 -267 -2z"/>
<path d="M2323 2786 c-93 -30 -177 -108 -220 -204 -37 -83 -44 -233 -14 -329
63 -208 277 -304 494 -223 151 57 238 220 224 422 -10 144 -85 261 -206 319
-58 28 -212 36 -278 15z m186 -141 c39 -20 76 -65 96 -119 25 -65 18 -224 -13
-283 -73 -141 -249 -133 -314 14 -58 132 -14 338 83 386 42 21 111 22 148 2z"/>
<path d="M950 2400 l0 -390 85 0 85 0 0 390 0 390 -85 0 -85 0 0 -390z"/>
<path d="M1330 2715 l0 -75 105 0 105 0 0 -315 0 -316 88 3 87 3 3 313 2 312
105 0 105 0 0 75 0 75 -300 0 -300 0 0 -75z"/>
<path d="M382 1894 c-145 -39 -226 -173 -176 -292 29 -69 93 -120 207 -162
114 -42 150 -106 91 -161 -23 -21 -34 -24 -102 -23 -53 0 -94 7 -130 22 -38
14 -54 17 -57 9 -2 -7 -9 -32 -15 -57 -6 -25 -13 -52 -16 -62 -9 -31 84 -53
221 -52 133 0 167 10 230 66 51 44 75 96 75 163 0 111 -51 173 -193 232 -50
20 -103 48 -119 61 -34 29 -37 71 -7 98 29 26 134 31 200 10 28 -10 52 -16 53
-14 12 15 36 132 29 139 -14 14 -141 39 -193 38 -25 0 -69 -7 -98 -15z"/>
<path d="M2342 1895 c-94 -27 -158 -72 -208 -150 -51 -80 -67 -150 -62 -269 5
-128 35 -201 112 -274 76 -72 144 -95 266 -90 79 3 105 8 152 31 144 70 218
218 205 407 -14 206 -144 342 -338 355 -49 3 -92 0 -127 -10z m164 -144 c77
-35 114 -117 113 -250 -1 -111 -28 -182 -87 -226 -36 -26 -128 -33 -170 -11
-74 38 -119 150 -108 273 15 178 125 272 252 214z"/>
<path d="M950 1505 l0 -385 85 0 85 0 0 385 0 385 -85 0 -85 0 0 -385z"/>
<path d="M1330 1820 l0 -70 105 0 105 0 0 -315 0 -316 85 3 86 3 2 310 2 310
108 3 107 3 0 69 0 70 -300 0 -300 0 0 -70z"/>
<path d="M355 1002 c-64 -21 -139 -93 -154 -147 -36 -134 22 -220 199 -295 55
-23 107 -52 115 -63 22 -31 19 -80 -6 -103 -33 -29 -147 -32 -228 -4 -35 11
-64 20 -66 18 -7 -10 -33 -133 -29 -140 12 -20 124 -42 214 -42 198 -1 310 85
310 238 0 111 -52 170 -212 237 -54 23 -105 51 -113 62 -36 51 -3 102 72 113
39 6 85 -2 172 -27 14 -4 28 31 45 107 7 31 6 31 -52 48 -75 21 -201 20 -267
-2z"/>
<path d="M2323 1006 c-93 -30 -176 -107 -221 -204 -37 -81 -43 -231 -13 -329
63 -208 277 -304 493 -223 207 77 293 370 175 593 -59 113 -157 169 -302 174
-56 2 -106 -2 -132 -11z m198 -149 c70 -47 99 -117 99 -239 0 -173 -89 -277
-215 -254 -46 9 -104 60 -127 113 -58 132 -14 338 83 386 50 24 119 22 160 -6z"/>
<path d="M950 620 l0 -390 85 0 85 0 0 390 0 390 -85 0 -85 0 0 -390z"/>
<path d="M1330 935 l0 -75 105 0 105 0 0 -315 0 -316 86 3 86 3 -1 312 -2 312
108 3 108 3 3 73 3 72 -301 0 -300 0 0 -75z"/>
</g>
</svg>
