<svg width="30" height="30" viewBox="0 0 30 30" fill="none" xmlns="http://www.w3.org/2000/svg">
<path d="M8.954 17.0699C9.70618 18.0891 10.5705 18.9904 11.687 19.628C12.9514 20.3507 14.3127 20.5687 15.7485 20.5022C16.4192 20.4701 16.621 20.2951 16.6519 19.6268C16.6727 19.1689 16.7256 18.7123 16.951 18.3008C17.1726 17.8973 17.5087 17.8209 17.8965 18.072C18.0896 18.1988 18.2522 18.3576 18.4061 18.5274C18.784 18.9399 19.1498 19.3671 19.5412 19.766C20.0334 20.2671 20.6172 20.5624 21.3495 20.5022L24.1872 20.5034C24.6438 20.4725 24.8814 19.9126 24.6192 19.4014C24.4346 19.0445 24.1922 18.727 23.9361 18.4189C23.3562 17.7223 22.6729 17.1287 22.0268 16.4985C21.4445 15.93 21.4075 15.5999 21.8753 14.9439C22.3873 14.2272 22.9363 13.5391 23.4522 12.8263C23.9335 12.1604 24.4273 11.4954 24.6794 10.699C24.8408 10.1907 24.698 9.96668 24.1787 9.87679C24.0888 9.86205 23.9953 9.86205 23.9042 9.86205L20.8165 9.85819C20.4362 9.85215 20.227 10.0184 20.0926 10.3554C19.9104 10.8112 19.7234 11.2666 19.5064 11.7049C19.0167 12.7021 18.4687 13.6659 17.7005 14.4809C17.5307 14.6605 17.3422 14.8883 17.0593 14.7948C16.706 14.6655 16.6014 14.0823 16.6074 13.8853L16.6048 10.3211C16.5362 9.813 16.4226 9.58515 15.9169 9.48633H12.7098C12.2829 9.48633 12.0673 9.65281 11.8383 9.9198C11.7078 10.0752 11.667 10.1747 11.9381 10.2264C12.4696 10.3272 12.7714 10.672 12.8502 11.2052C12.977 12.0584 12.9683 12.915 12.8946 13.7706C12.8736 14.0204 12.8306 14.2693 12.7318 14.5032C12.5769 14.8712 12.3256 14.9451 11.997 14.7187C11.7005 14.5143 11.4913 14.2263 11.2854 13.937C10.5161 12.8497 9.9031 11.6781 9.40197 10.4468C9.25797 10.0909 9.00813 9.87558 8.63144 9.8693C7.70553 9.85456 6.77866 9.85239 5.85155 9.87051C5.2951 9.88042 5.12886 10.1513 5.35671 10.6572C6.365 12.9014 7.48783 15.0828 8.954 17.0699Z" fill="#727272"/>
<path d="M0 0V30H30V0H0ZM28.1443 28.1443H1.85567V1.85567H28.1443V28.1443Z" fill="#727272"/>
</svg>
