<svg width="30" height="30" viewBox="0 0 30 30" fill="none" xmlns="http://www.w3.org/2000/svg">
<rect x="1" y="1" width="28" height="28" stroke="#717171" stroke-width="2"/>
<path d="M23.9789 10.3135C23.7628 9.51023 23.1295 8.87703 22.3264 8.66074C20.8591 8.25928 14.99 8.25928 14.99 8.25928C14.99 8.25928 9.12113 8.25928 7.65388 8.64552C6.86619 8.86158 6.21742 9.51035 6.00136 10.3135C5.61523 11.7806 5.61523 14.8233 5.61523 14.8233C5.61523 14.8233 5.61523 17.8812 6.00136 19.333C6.21765 20.1362 6.85074 20.7694 7.654 20.9857C9.13658 21.3873 14.9902 21.3873 14.9902 21.3873C14.9902 21.3873 20.8591 21.3873 22.3264 21.001C23.1296 20.7848 23.7628 20.1516 23.9791 19.3485C24.3651 17.8812 24.3651 14.8387 24.3651 14.8387C24.3651 14.8387 24.3806 11.7806 23.9789 10.3135ZM13.1214 17.6342V12.0124L18.0019 14.8233L13.1214 17.6342Z" fill="#717171"/>
</svg>
