<svg xmlns="http://www.w3.org/2000/svg" xmlns:xlink="http://www.w3.org/1999/xlink" width="115" height="100">
    <defs>
        <path id="a" d="M0 .664h55.52v80.908H0z"/>
    </defs>

    <g fill="none" fill-rule="evenodd">
        <path fill="#AAAAAA" d="M111.13 55.189c-1.142 16.557-11.03 18.686-27.18 20.225-6.6.627-11.246 1.556-14.64 2.231-2.734.547-4.714.935-6.037.825-.362-.031-.636-.387-.717-.93-.274-1.858 1.718-5.984 10.92-9.66 6.921-2.764 11.69-7.005 13.428-11.942 1.306-3.713.842-7.723-1.345-11.598a1.501 1.501 0 0 0-.074-.12c-2.461-3.592-5.446-5.555-8.871-5.835a10.32 10.32 0 0 0-.838-.035c-5.334 0-9.754 4.086-10.614 4.935a1.963 1.963 0 0 1-1.933.06c-.302-.153-1.009-.614-1.068-1.589-.171-2.896.894-5.395 3.256-7.638 1.79-1.7 4.033-2.51 7.744-2.797 12.255-.946 19.795 7.614 19.901 7.736a1.625 1.625 0 0 0 2.473-2.11c-.205-.24-3.187-3.67-8.48-6.214l-11.4-22.464c-.634-1.118.181-1.819.446-2.008.264-.187 1.194-.726 2.041.237l26.611 30.27c2.528 2.875 4.65 7.506 5.702 11.938l.045.628c.02.27.11.516.244.732.343 1.824.494 3.581.387 5.123zM89.846 5.896c-.219-1.266.784-1.651 1.097-1.738.316-.088 1.37-.28 1.842.913.013.031.026.063.04.093l13.166 28.09L91.103 16.32 89.846 5.896zm15.096 9.097c.143-1.26 1.18-1.368 1.53-1.368h.02c.327.005 1.402.118 1.513 1.382l1.28 17.618-4.968-10.6.625-7.032zm6.303-.245c-.222-2.543-2.16-4.34-4.713-4.373-2.567-.034-4.534 1.717-4.823 4.292l-.135 1.508-5.786-12.349c-.948-2.33-3.293-3.478-5.722-2.798-2.447.687-3.855 2.916-3.434 5.338l.677 5.64-6.726-7.653c-1.68-1.908-4.297-2.213-6.368-.74-2.07 1.474-2.642 4.048-1.424 6.193l9.751 19.217a27.414 27.414 0 0 0-9.633-.942c-3.151.244-6.773.871-9.731 3.68-3.057 2.903-4.491 6.33-4.261 10.188.11 1.841 1.17 3.447 2.84 4.295 1.684.855 3.628.763 5.193-.244l.135-.088c.1-.066.193-.144.276-.23.043-.044 4.343-4.442 9-4.057 2.38.2 4.533 1.671 6.401 4.374 1.707 3.056 2.07 6.036 1.075 8.86-1.422 4.039-5.53 7.592-11.568 10.003-10.354 4.135-13.467 9.506-12.929 13.153.303 2.045 1.77 3.53 3.65 3.693.259.023.521.033.793.033 1.61 0 3.5-.376 6.162-.908 3.325-.663 7.877-1.57 14.311-2.184 14.111-1.344 28.701-2.734 30.117-23.237.147-2.15-.119-4.622-.692-7.146l-2.436-33.518z"/>
        <g transform="translate(0 .17)">
            <mask id="b" fill="#fff">
                <use xlink:href="#a"/>
            </mask>
            <path fill="#AAAAAA" d="M3.283 55.019c-.107-1.541.044-3.298.387-5.122.134-.216.224-.462.244-.732l.045-.629c1.052-4.431 3.173-9.062 5.701-11.938L26.09 17.91a.036.036 0 0 0 .005-.006L36.271 6.329c.373-.425.763-.558 1.103-.558.435 0 .791.216.94.321.264.19 1.079.89.409 2.073L27.359 30.564c-5.292 2.543-8.275 5.974-8.48 6.214a1.625 1.625 0 0 0 2.475 2.108c.073-.086 7.561-8.688 19.899-7.734 3.712.287 5.955 1.097 7.744 2.797 2.362 2.243 3.428 4.741 3.255 7.637-.06.976-.766 1.437-1.068 1.59a1.963 1.963 0 0 1-1.933-.06c-.905-.892-5.737-5.358-11.45-4.9-3.426.28-6.41 2.243-8.872 5.834-.026.04-.051.08-.074.12-2.187 3.875-2.652 7.885-1.346 11.599 1.739 4.936 6.507 9.178 13.428 11.941 9.203 3.677 11.194 7.803 10.92 9.66-.08.544-.355.9-.717.931-1.327.111-3.302-.278-6.037-.825-3.394-.676-8.04-1.604-14.64-2.231-16.15-1.539-26.039-3.668-27.18-20.226zM7.92 13.456h.021c.35 0 1.388.108 1.526 1.33l.628 7.07-4.967 10.6 1.277-17.594c.114-1.288 1.189-1.402 1.515-1.406zm13.668-8.461a1.57 1.57 0 0 0 .04-.094c.472-1.193 1.53-.999 1.841-.913.314.087 1.317.472 1.086 1.82l-1.245 10.34L8.422 33.086l13.166-28.09zM48.336 44.46l.21-.384.099-.093-.309.477zm-3.869 36.204c2.663.531 4.553.908 6.163.908.271 0 .534-.01.792-.033 1.88-.164 3.348-1.648 3.65-3.694.538-3.646-2.575-9.017-12.93-13.152-6.037-2.41-10.145-5.964-11.567-10.003-.993-2.824-.632-5.805 1.076-8.86 1.868-2.704 4.021-4.175 6.402-4.374 4.642-.385 8.956 4.013 8.997 4.054.083.088.176.166.278.233l.13.084c1.57 1.012 3.513 1.104 5.198.248 1.669-.848 2.73-2.454 2.84-4.295.23-3.858-1.204-7.285-4.26-10.188-2.959-2.81-6.58-3.437-9.732-3.68a27.44 27.44 0 0 0-9.634.942l9.716-19.151c1.254-2.21.683-4.784-1.388-6.258-2.071-1.474-4.688-1.17-6.368.739l-6.728 7.653.668-5.558c.432-2.505-.976-4.734-3.423-5.42-2.434-.683-4.775.468-5.722 2.798l-5.787 12.35-.138-1.547c-.285-2.537-2.287-4.293-4.82-4.254-2.552.033-4.49 1.83-4.715 4.396L.733 48.094C.158 50.619-.108 53.09.04 55.243 1.455 75.745 16.045 77.135 30.156 78.48c6.434.613 10.987 1.521 14.311 2.184z" mask="url(#b)"/>
        </g>
        <path fill="#AAAAAA" d="M55.244 97.71a1.625 1.625 0 1 0 3.25 0v-5.388a1.625 1.625 0 1 0-3.25 0v5.389zm-7.976-7.31l-2.466 4.658a1.625 1.625 0 1 0 2.873 1.52l2.466-4.658a1.625 1.625 0 1 0-2.873-1.52m-7.158-3.411l-4.078 3.35a1.623 1.623 0 0 0 1.033 2.88c.362 0 .728-.121 1.03-.37l4.078-3.349c.694-.57.794-1.593.224-2.286a1.624 1.624 0 0 0-2.286-.225m27.391 10.454a1.624 1.624 0 0 0 1.435-2.385L66.472 90.4a1.626 1.626 0 0 0-2.873 1.52l2.465 4.658c.293.55.856.865 1.438.865m9.173-4.223a1.624 1.624 0 0 0 1.032-2.88l-4.078-3.352a1.624 1.624 0 0 0-2.063 2.512l4.079 3.35c.301.248.666.37 1.03.37"/>
    </g>
</svg>